<svg xmlns="http://www.w3.org/2000/svg" viewBox="0 0 900 900" role="img" aria-label="Cartoon designer avatar">
  <defs>
    <filter id="shadow" x="-20%" y="-20%" width="140%" height="140%"><feDropShadow dx="0" dy="18" stdDeviation="18" flood-color="#000" flood-opacity="0.18"/></filter>
    <linearGradient id="bg" x1="0" x2="1" y1="0" y2="1"><stop stop-color="#fff7e8"/><stop offset="1" stop-color="#ffe2ec"/></linearGradient>
  </defs>
  <circle cx="450" cy="450" r="430" fill="#fff"/>
  <circle cx="450" cy="450" r="405" fill="url(#bg)"/>
  <g filter="url(#shadow)" stroke="#30251f" stroke-width="16" stroke-linecap="round" stroke-linejoin="round">
    <path d="M225 850 V740 C225 665 300 620 450 620 C600 620 675 665 675 740 V850 Z" fill="#173f66"/>
    <path d="M185 850 V730 C185 675 235 655 295 675 V850 Z" fill="#173f66"/>
    <path d="M715 850 V730 C715 675 665 655 605 675 V850 Z" fill="#173f66"/>
    <rect x="390" y="535" width="120" height="130" rx="35" fill="#efb894"/>
    <ellipse cx="270" cy="410" rx="42" ry="55" fill="#ffd8bd"/>
    <ellipse cx="630" cy="410" rx="42" ry="55" fill="#ffd8bd"/>
    <rect x="275" y="225" width="350" height="365" rx="145" fill="#ffd8bd"/>
    <path d="M250 305 C250 180 345 135 450 145 C555 120 650 185 650 310 C610 255 560 285 530 235 C475 310 390 245 340 305 C315 335 275 340 250 305 Z" fill="#241915"/>
    <circle cx="330" cy="245" r="78" fill="#241915" stroke="none"/>
    <circle cx="425" cy="205" r="88" fill="#241915" stroke="none"/>
    <circle cx="535" cy="220" r="82" fill="#241915" stroke="none"/>
    <circle cx="610" cy="285" r="68" fill="#241915" stroke="none"/>
    <rect x="315" y="350" width="110" height="82" rx="24" fill="rgba(255,255,255,.22)" stroke="#111" stroke-width="14"/>
    <rect x="475" y="350" width="110" height="82" rx="24" fill="rgba(255,255,255,.22)" stroke="#111" stroke-width="14"/>
    <path d="M425 390 H475" stroke="#111" stroke-width="14"/>
    <circle cx="370" cy="392" r="11" fill="#111" stroke="none"/>
    <circle cx="530" cy="392" r="11" fill="#111" stroke="none"/>
    <path d="M450 410 L435 465 H465" fill="none" stroke="#b26f5f" stroke-width="8"/>
    <path d="M395 485 C420 530 480 530 505 485" fill="none" stroke="#8a3d38" stroke-width="12"/>
  </g>
  <ellipse cx="345" cy="462" rx="36" ry="22" fill="#ff9994" opacity="0.35"/>
  <ellipse cx="555" cy="462" rx="36" ry="22" fill="#ff9994" opacity="0.35"/>
  <text x="450" y="760" text-anchor="middle" font-family="Arial, Helvetica, sans-serif" font-size="58" font-weight="800" fill="#fff">Designer</text>
  <g stroke="#ff7a1a" stroke-width="10" stroke-linecap="round">
    <path d="M205 215 h45 M227 193 v45"/><path d="M685 250 h45 M708 228 v45"/><path d="M700 590 h45 M723 568 v45"/><path d="M185 575 h45 M207 553 v45"/>
  </g>
</svg>
